<?xml version="1.0" encoding="UTF-8" standalone="no"?>
<!DOCTYPE svg PUBLIC "-//W3C//DTD SVG 1.1//EN"
 "http://www.w3.org/Graphics/SVG/1.1/DTD/svg11.dtd">
<!-- Generated by graphviz version 11.0.0 (20240519.1550)
 -->
<!-- Title: snakemake_dag Pages: 1 -->
<svg width="212pt" height="332pt"
 viewBox="0.00 0.00 212.25 332.00" xmlns="http://www.w3.org/2000/svg" xmlns:xlink="http://www.w3.org/1999/xlink">
<g id="graph0" class="graph" transform="scale(1 1) rotate(0) translate(4 328)">
<title>snakemake_dag</title>
<polygon fill="white" stroke="none" points="-4,4 -4,-328 208.25,-328 208.25,4 -4,4"/>
<!-- 0 -->
<g id="node1" class="node">
<title>0</title>
<path fill="none" stroke="#56d8d8" stroke-width="2" stroke-dasharray="5,2" d="M81.25,-36C81.25,-36 12,-36 12,-36 6,-36 0,-30 0,-24 0,-24 0,-12 0,-12 0,-6 6,0 12,0 12,0 81.25,0 81.25,0 87.25,0 93.25,-6 93.25,-12 93.25,-12 93.25,-24 93.25,-24 93.25,-30 87.25,-36 81.25,-36"/>
<text text-anchor="middle" x="46.62" y="-14.88" font-family="sans" font-size="10.00">samtools_index</text>
</g>
<!-- 1 -->
<g id="node2" class="node">
<title>1</title>
<path fill="none" stroke="#569ad8" stroke-width="2" stroke-dasharray="5,2" d="M81.12,-108C81.12,-108 20.12,-108 20.12,-108 14.12,-108 8.12,-102 8.12,-96 8.12,-96 8.12,-84 8.12,-84 8.12,-78 14.12,-72 20.12,-72 20.12,-72 81.12,-72 81.12,-72 87.12,-72 93.12,-78 93.12,-84 93.12,-84 93.12,-96 93.12,-96 93.12,-102 87.12,-108 81.12,-108"/>
<text text-anchor="middle" x="50.62" y="-86.88" font-family="sans" font-size="10.00">samtools_sort</text>
</g>
<!-- 1&#45;&gt;0 -->
<g id="edge1" class="edge">
<title>1&#45;&gt;0</title>
<path fill="none" stroke="grey" stroke-width="2" d="M49.62,-71.34C49.24,-64.75 48.8,-57.08 48.38,-49.67"/>
<polygon fill="grey" stroke="grey" stroke-width="2" points="51.89,-49.71 47.82,-39.92 44.9,-50.11 51.89,-49.71"/>
</g>
<!-- 2 -->
<g id="node3" class="node">
<title>2</title>
<path fill="none" stroke="#d6d856" stroke-width="2" stroke-dasharray="5,2" d="M81,-180C81,-180 40.25,-180 40.25,-180 34.25,-180 28.25,-174 28.25,-168 28.25,-168 28.25,-156 28.25,-156 28.25,-150 34.25,-144 40.25,-144 40.25,-144 81,-144 81,-144 87,-144 93,-150 93,-156 93,-156 93,-168 93,-168 93,-174 87,-180 81,-180"/>
<text text-anchor="middle" x="60.62" y="-165.25" font-family="sans" font-size="10.00">bwa_map</text>
<text text-anchor="middle" x="60.62" y="-152.5" font-family="sans" font-size="10.00">sample: B</text>
</g>
<!-- 2&#45;&gt;1 -->
<g id="edge2" class="edge">
<title>2&#45;&gt;1</title>
<path fill="none" stroke="grey" stroke-width="2" d="M58.1,-143.34C57.16,-136.75 56.06,-129.08 55.01,-121.67"/>
<polygon fill="grey" stroke="grey" stroke-width="2" points="58.49,-121.3 53.61,-111.9 51.56,-122.29 58.49,-121.3"/>
</g>
<!-- 3 -->
<g id="node4" class="node">
<title>3</title>
<path fill="none" stroke="#59d856" stroke-width="2" stroke-dasharray="5,2" d="M128.38,-252C128.38,-252 74.88,-252 74.88,-252 68.88,-252 62.88,-246 62.88,-240 62.88,-240 62.88,-228 62.88,-228 62.88,-222 68.88,-216 74.88,-216 74.88,-216 128.38,-216 128.38,-216 134.38,-216 140.38,-222 140.38,-228 140.38,-228 140.38,-240 140.38,-240 140.38,-246 134.38,-252 128.38,-252"/>
<text text-anchor="middle" x="101.62" y="-230.88" font-family="sans" font-size="10.00">extract_data</text>
</g>
<!-- 3&#45;&gt;2 -->
<g id="edge3" class="edge">
<title>3&#45;&gt;2</title>
<path fill="none" stroke="grey" stroke-width="2" d="M91.28,-215.34C87.13,-208.26 82.25,-199.92 77.61,-192"/>
<polygon fill="grey" stroke="grey" stroke-width="2" points="80.71,-190.37 72.64,-183.51 74.67,-193.91 80.71,-190.37"/>
</g>
<!-- 7 -->
<g id="node8" class="node">
<title>7</title>
<path fill="none" stroke="#d6d856" stroke-width="2" stroke-dasharray="5,2" d="M170,-180C170,-180 129.25,-180 129.25,-180 123.25,-180 117.25,-174 117.25,-168 117.25,-168 117.25,-156 117.25,-156 117.25,-150 123.25,-144 129.25,-144 129.25,-144 170,-144 170,-144 176,-144 182,-150 182,-156 182,-156 182,-168 182,-168 182,-174 176,-180 170,-180"/>
<text text-anchor="middle" x="149.62" y="-165.25" font-family="sans" font-size="10.00">bwa_map</text>
<text text-anchor="middle" x="149.62" y="-152.5" font-family="sans" font-size="10.00">sample: A</text>
</g>
<!-- 3&#45;&gt;7 -->
<g id="edge7" class="edge">
<title>3&#45;&gt;7</title>
<path fill="none" stroke="grey" stroke-width="2" d="M113.74,-215.34C118.7,-208.1 124.57,-199.53 130.12,-191.45"/>
<polygon fill="grey" stroke="grey" stroke-width="2" points="132.87,-193.62 135.64,-183.4 127.1,-189.67 132.87,-193.62"/>
</g>
<!-- 4 -->
<g id="node5" class="node">
<title>4</title>
<path fill="none" stroke="#97d856" stroke-width="2" stroke-dasharray="5,2" d="M134.75,-324C134.75,-324 68.5,-324 68.5,-324 62.5,-324 56.5,-318 56.5,-312 56.5,-312 56.5,-300 56.5,-300 56.5,-294 62.5,-288 68.5,-288 68.5,-288 134.75,-288 134.75,-288 140.75,-288 146.75,-294 146.75,-300 146.75,-300 146.75,-312 146.75,-312 146.75,-318 140.75,-324 134.75,-324"/>
<text text-anchor="middle" x="101.62" y="-302.88" font-family="sans" font-size="10.00">download_data</text>
</g>
<!-- 4&#45;&gt;3 -->
<g id="edge4" class="edge">
<title>4&#45;&gt;3</title>
<path fill="none" stroke="grey" stroke-width="2" d="M101.62,-287.34C101.62,-280.75 101.62,-273.08 101.62,-265.67"/>
<polygon fill="grey" stroke="grey" stroke-width="2" points="105.13,-265.93 101.63,-255.93 98.13,-265.93 105.13,-265.93"/>
</g>
<!-- 5 -->
<g id="node6" class="node">
<title>5</title>
<path fill="none" stroke="#56d8d8" stroke-width="2" stroke-dasharray="5,2" d="M192.25,-36C192.25,-36 123,-36 123,-36 117,-36 111,-30 111,-24 111,-24 111,-12 111,-12 111,-6 117,0 123,0 123,0 192.25,0 192.25,0 198.25,0 204.25,-6 204.25,-12 204.25,-12 204.25,-24 204.25,-24 204.25,-30 198.25,-36 192.25,-36"/>
<text text-anchor="middle" x="157.62" y="-14.88" font-family="sans" font-size="10.00">samtools_index</text>
</g>
<!-- 6 -->
<g id="node7" class="node">
<title>6</title>
<path fill="none" stroke="#569ad8" stroke-width="2" stroke-dasharray="5,2" d="M186.12,-108C186.12,-108 125.12,-108 125.12,-108 119.12,-108 113.12,-102 113.12,-96 113.12,-96 113.12,-84 113.12,-84 113.12,-78 119.12,-72 125.12,-72 125.12,-72 186.12,-72 186.12,-72 192.12,-72 198.12,-78 198.12,-84 198.12,-84 198.12,-96 198.12,-96 198.12,-102 192.12,-108 186.12,-108"/>
<text text-anchor="middle" x="155.62" y="-86.88" font-family="sans" font-size="10.00">samtools_sort</text>
</g>
<!-- 6&#45;&gt;5 -->
<g id="edge5" class="edge">
<title>6&#45;&gt;5</title>
<path fill="none" stroke="grey" stroke-width="2" d="M156.13,-71.34C156.32,-64.75 156.54,-57.08 156.75,-49.67"/>
<polygon fill="grey" stroke="grey" stroke-width="2" points="160.24,-50.02 157.03,-39.93 153.24,-49.82 160.24,-50.02"/>
</g>
<!-- 7&#45;&gt;6 -->
<g id="edge6" class="edge">
<title>7&#45;&gt;6</title>
<path fill="none" stroke="grey" stroke-width="2" d="M151.14,-143.34C151.7,-136.75 152.36,-129.08 153,-121.67"/>
<polygon fill="grey" stroke="grey" stroke-width="2" points="156.47,-122.18 153.83,-111.92 149.49,-121.58 156.47,-122.18"/>
</g>
</g>
</svg>
