<?xml version="1.0" encoding="UTF-8" standalone="no"?>
<!DOCTYPE svg PUBLIC "-//W3C//DTD SVG 1.1//EN"
 "http://www.w3.org/Graphics/SVG/1.1/DTD/svg11.dtd">
<!-- Generated by graphviz version 11.0.0 (20240519.1550)
 -->
<!-- Title: snakemake_dag Pages: 1 -->
<svg width="297pt" height="404pt"
 viewBox="0.00 0.00 296.69 404.00" xmlns="http://www.w3.org/2000/svg" xmlns:xlink="http://www.w3.org/1999/xlink">
<g id="graph0" class="graph" transform="scale(1 1) rotate(0) translate(4 400)">
<title>snakemake_dag</title>
<polygon fill="white" stroke="none" points="-4,4 -4,-400 292.69,-400 292.69,4 -4,4"/>
<!-- 0 -->
<g id="node1" class="node">
<title>0</title>
<path fill="none" stroke="#d89556" stroke-width="2" stroke-dasharray="5,2" d="M118.44,-36C118.44,-36 65.69,-36 65.69,-36 59.69,-36 53.69,-30 53.69,-24 53.69,-24 53.69,-12 53.69,-12 53.69,-6 59.69,0 65.69,0 65.69,0 118.44,0 118.44,0 124.44,0 130.44,-6 130.44,-12 130.44,-12 130.44,-24 130.44,-24 130.44,-30 124.44,-36 118.44,-36"/>
<text text-anchor="middle" x="92.07" y="-14.88" font-family="sans" font-size="10.00">bcftools_call</text>
</g>
<!-- 1 -->
<g id="node2" class="node">
<title>1</title>
<path fill="none" stroke="#59d856" stroke-width="2" stroke-dasharray="5,2" d="M83.82,-324C83.82,-324 30.32,-324 30.32,-324 24.32,-324 18.32,-318 18.32,-312 18.32,-312 18.32,-300 18.32,-300 18.32,-294 24.32,-288 30.32,-288 30.32,-288 83.82,-288 83.82,-288 89.82,-288 95.82,-294 95.82,-300 95.82,-300 95.82,-312 95.82,-312 95.82,-318 89.82,-324 83.82,-324"/>
<text text-anchor="middle" x="57.07" y="-302.88" font-family="sans" font-size="10.00">extract_data</text>
</g>
<!-- 1&#45;&gt;0 -->
<g id="edge1" class="edge">
<title>1&#45;&gt;0</title>
<path fill="none" stroke="grey" stroke-width="2" d="M39.72,-287.36C31.23,-277.69 21.66,-265.04 16.07,-252 -2.94,-207.66 -2.36,-191.67 5.07,-144 10.24,-110.81 9.26,-99.84 28.07,-72 34.95,-61.82 44.33,-52.54 53.8,-44.7"/>
<polygon fill="grey" stroke="grey" stroke-width="2" points="55.85,-47.54 61.6,-38.63 51.55,-42.01 55.85,-47.54"/>
</g>
<!-- 4 -->
<g id="node5" class="node">
<title>4</title>
<path fill="none" stroke="#d6d856" stroke-width="2" stroke-dasharray="5,2" d="M77.44,-252C77.44,-252 36.69,-252 36.69,-252 30.69,-252 24.69,-246 24.69,-240 24.69,-240 24.69,-228 24.69,-228 24.69,-222 30.69,-216 36.69,-216 36.69,-216 77.44,-216 77.44,-216 83.44,-216 89.44,-222 89.44,-228 89.44,-228 89.44,-240 89.44,-240 89.44,-246 83.44,-252 77.44,-252"/>
<text text-anchor="middle" x="57.07" y="-237.25" font-family="sans" font-size="10.00">bwa_map</text>
<text text-anchor="middle" x="57.07" y="-224.5" font-family="sans" font-size="10.00">sample: A</text>
</g>
<!-- 1&#45;&gt;4 -->
<g id="edge8" class="edge">
<title>1&#45;&gt;4</title>
<path fill="none" stroke="grey" stroke-width="2" d="M57.07,-287.34C57.07,-280.75 57.07,-273.08 57.07,-265.67"/>
<polygon fill="grey" stroke="grey" stroke-width="2" points="60.57,-265.93 57.07,-255.93 53.57,-265.93 60.57,-265.93"/>
</g>
<!-- 6 -->
<g id="node7" class="node">
<title>6</title>
<path fill="none" stroke="#d6d856" stroke-width="2" stroke-dasharray="5,2" d="M173.44,-252C173.44,-252 132.69,-252 132.69,-252 126.69,-252 120.69,-246 120.69,-240 120.69,-240 120.69,-228 120.69,-228 120.69,-222 126.69,-216 132.69,-216 132.69,-216 173.44,-216 173.44,-216 179.44,-216 185.44,-222 185.44,-228 185.44,-228 185.44,-240 185.44,-240 185.44,-246 179.44,-252 173.44,-252"/>
<text text-anchor="middle" x="153.07" y="-237.25" font-family="sans" font-size="10.00">bwa_map</text>
<text text-anchor="middle" x="153.07" y="-224.5" font-family="sans" font-size="10.00">sample: B</text>
</g>
<!-- 1&#45;&gt;6 -->
<g id="edge10" class="edge">
<title>1&#45;&gt;6</title>
<path fill="none" stroke="grey" stroke-width="2" d="M81.54,-287.15C92.71,-279.01 106.14,-269.22 118.33,-260.33"/>
<polygon fill="grey" stroke="grey" stroke-width="2" points="120.17,-263.32 126.19,-254.6 116.05,-257.66 120.17,-263.32"/>
</g>
<!-- 2 -->
<g id="node3" class="node">
<title>2</title>
<path fill="none" stroke="#97d856" stroke-width="2" stroke-dasharray="5,2" d="M90.19,-396C90.19,-396 23.94,-396 23.94,-396 17.94,-396 11.94,-390 11.94,-384 11.94,-384 11.94,-372 11.94,-372 11.94,-366 17.94,-360 23.94,-360 23.94,-360 90.19,-360 90.19,-360 96.19,-360 102.19,-366 102.19,-372 102.19,-372 102.19,-384 102.19,-384 102.19,-390 96.19,-396 90.19,-396"/>
<text text-anchor="middle" x="57.07" y="-374.88" font-family="sans" font-size="10.00">download_data</text>
</g>
<!-- 2&#45;&gt;1 -->
<g id="edge6" class="edge">
<title>2&#45;&gt;1</title>
<path fill="none" stroke="grey" stroke-width="2" d="M57.07,-359.34C57.07,-352.75 57.07,-345.08 57.07,-337.67"/>
<polygon fill="grey" stroke="grey" stroke-width="2" points="60.57,-337.93 57.07,-327.93 53.57,-337.93 60.57,-337.93"/>
</g>
<!-- 3 -->
<g id="node4" class="node">
<title>3</title>
<path fill="none" stroke="#569ad8" stroke-width="2" stroke-dasharray="5,2" d="M87.57,-180C87.57,-180 26.57,-180 26.57,-180 20.57,-180 14.57,-174 14.57,-168 14.57,-168 14.57,-156 14.57,-156 14.57,-150 20.57,-144 26.57,-144 26.57,-144 87.57,-144 87.57,-144 93.57,-144 99.57,-150 99.57,-156 99.57,-156 99.57,-168 99.57,-168 99.57,-174 93.57,-180 87.57,-180"/>
<text text-anchor="middle" x="57.07" y="-158.88" font-family="sans" font-size="10.00">samtools_sort</text>
</g>
<!-- 3&#45;&gt;0 -->
<g id="edge2" class="edge">
<title>3&#45;&gt;0</title>
<path fill="none" stroke="grey" stroke-width="2" d="M46.36,-143.03C36.87,-124.63 25.96,-95.48 36.07,-72 40.36,-62.03 47.54,-53.07 55.36,-45.46"/>
<polygon fill="grey" stroke="grey" stroke-width="2" points="57.62,-48.14 62.79,-38.9 52.98,-42.9 57.62,-48.14"/>
</g>
<!-- 7 -->
<g id="node8" class="node">
<title>7</title>
<path fill="none" stroke="#56d8d8" stroke-width="2" stroke-dasharray="5,2" d="M126.69,-108C126.69,-108 57.44,-108 57.44,-108 51.44,-108 45.44,-102 45.44,-96 45.44,-96 45.44,-84 45.44,-84 45.44,-78 51.44,-72 57.44,-72 57.44,-72 126.69,-72 126.69,-72 132.69,-72 138.69,-78 138.69,-84 138.69,-84 138.69,-96 138.69,-96 138.69,-102 132.69,-108 126.69,-108"/>
<text text-anchor="middle" x="92.07" y="-86.88" font-family="sans" font-size="10.00">samtools_index</text>
</g>
<!-- 3&#45;&gt;7 -->
<g id="edge11" class="edge">
<title>3&#45;&gt;7</title>
<path fill="none" stroke="grey" stroke-width="2" d="M65.9,-143.34C69.39,-136.34 73.51,-128.12 77.43,-120.28"/>
<polygon fill="grey" stroke="grey" stroke-width="2" points="80.42,-122.12 81.76,-111.61 74.16,-118.99 80.42,-122.12"/>
</g>
<!-- 4&#45;&gt;3 -->
<g id="edge7" class="edge">
<title>4&#45;&gt;3</title>
<path fill="none" stroke="grey" stroke-width="2" d="M57.07,-215.34C57.07,-208.75 57.07,-201.08 57.07,-193.67"/>
<polygon fill="grey" stroke="grey" stroke-width="2" points="60.57,-193.93 57.07,-183.93 53.57,-193.93 60.57,-193.93"/>
</g>
<!-- 5 -->
<g id="node6" class="node">
<title>5</title>
<path fill="none" stroke="#569ad8" stroke-width="2" stroke-dasharray="5,2" d="M197.57,-180C197.57,-180 136.57,-180 136.57,-180 130.57,-180 124.57,-174 124.57,-168 124.57,-168 124.57,-156 124.57,-156 124.57,-150 130.57,-144 136.57,-144 136.57,-144 197.57,-144 197.57,-144 203.57,-144 209.57,-150 209.57,-156 209.57,-156 209.57,-168 209.57,-168 209.57,-174 203.57,-180 197.57,-180"/>
<text text-anchor="middle" x="167.07" y="-158.88" font-family="sans" font-size="10.00">samtools_sort</text>
</g>
<!-- 5&#45;&gt;0 -->
<g id="edge3" class="edge">
<title>5&#45;&gt;0</title>
<path fill="none" stroke="grey" stroke-width="2" d="M166.36,-143.19C164.93,-124.4 160.68,-94.46 148.07,-72 142.56,-62.18 134.62,-53.1 126.45,-45.32"/>
<polygon fill="grey" stroke="grey" stroke-width="2" points="128.95,-42.86 119.15,-38.84 124.3,-48.09 128.95,-42.86"/>
</g>
<!-- 8 -->
<g id="node9" class="node">
<title>8</title>
<path fill="none" stroke="#56d8d8" stroke-width="2" stroke-dasharray="5,2" d="M276.69,-108C276.69,-108 207.44,-108 207.44,-108 201.44,-108 195.44,-102 195.44,-96 195.44,-96 195.44,-84 195.44,-84 195.44,-78 201.44,-72 207.44,-72 207.44,-72 276.69,-72 276.69,-72 282.69,-72 288.69,-78 288.69,-84 288.69,-84 288.69,-96 288.69,-96 288.69,-102 282.69,-108 276.69,-108"/>
<text text-anchor="middle" x="242.07" y="-86.88" font-family="sans" font-size="10.00">samtools_index</text>
</g>
<!-- 5&#45;&gt;8 -->
<g id="edge12" class="edge">
<title>5&#45;&gt;8</title>
<path fill="none" stroke="grey" stroke-width="2" d="M185.99,-143.34C194.37,-135.52 204.39,-126.16 213.64,-117.53"/>
<polygon fill="grey" stroke="grey" stroke-width="2" points="215.75,-120.35 220.67,-110.97 210.97,-115.23 215.75,-120.35"/>
</g>
<!-- 6&#45;&gt;5 -->
<g id="edge9" class="edge">
<title>6&#45;&gt;5</title>
<path fill="none" stroke="grey" stroke-width="2" d="M156.6,-215.34C157.92,-208.75 159.45,-201.08 160.93,-193.67"/>
<polygon fill="grey" stroke="grey" stroke-width="2" points="164.36,-194.36 162.89,-183.87 157.5,-192.99 164.36,-194.36"/>
</g>
<!-- 7&#45;&gt;0 -->
<g id="edge4" class="edge">
<title>7&#45;&gt;0</title>
<path fill="none" stroke="grey" stroke-width="2" d="M92.07,-71.34C92.07,-64.75 92.07,-57.08 92.07,-49.67"/>
<polygon fill="grey" stroke="grey" stroke-width="2" points="95.57,-49.93 92.07,-39.93 88.57,-49.93 95.57,-49.93"/>
</g>
<!-- 8&#45;&gt;0 -->
<g id="edge5" class="edge">
<title>8&#45;&gt;0</title>
<path fill="none" stroke="grey" stroke-width="2" d="M203.83,-71.15C185.12,-62.43 162.36,-51.81 142.28,-42.43"/>
<polygon fill="grey" stroke="grey" stroke-width="2" points="143.78,-39.27 133.24,-38.21 140.82,-45.61 143.78,-39.27"/>
</g>
</g>
</svg>
